<svg width="20" height="20" viewBox="0 0 20 20" fill="none" xmlns="http://www.w3.org/2000/svg">
<path d="M0.288932 11.3003C0.234248 11.3042 0.18347 11.2847 0.140503 11.2495C0.105349 11.2066 0.0897254 11.1519 0.0936314 11.1011V6.00378C0.0858194 5.9491 0.105349 5.89441 0.140503 5.85535C0.18347 5.8241 0.234248 5.80848 0.285026 5.81239H0.839678C0.94514 5.80067 1.03888 5.87488 1.05451 5.98034L1.10919 6.17955C1.26934 6.02722 1.45683 5.90222 1.66385 5.8241C1.87477 5.73817 2.10132 5.69521 2.32787 5.69521C2.78096 5.67958 3.21453 5.88269 3.49576 6.23814C3.80434 6.66389 3.96058 7.18339 3.92933 7.7107C3.93714 8.09349 3.86293 8.47237 3.7145 8.82391C3.58951 9.11686 3.3903 9.37075 3.1325 9.55434C2.88252 9.72229 2.58957 9.81213 2.28881 9.80432C2.08569 9.80432 1.88258 9.77307 1.68728 9.70276C1.51151 9.64418 1.34746 9.55043 1.20684 9.42934V11.1089C1.21075 11.1636 1.19903 11.2144 1.16388 11.2574C1.12091 11.2886 1.06623 11.3042 1.01545 11.3003H0.288932ZM1.96851 8.96062C2.21459 8.98015 2.45286 8.86688 2.60129 8.66767C2.75753 8.38644 2.82783 8.07006 2.8044 7.74976C2.82783 7.42947 2.75753 7.10527 2.60519 6.82404C2.45676 6.62093 2.2185 6.51156 1.96851 6.53109C1.70291 6.53109 1.44511 6.6014 1.21856 6.73811V8.7497C1.4412 8.89422 1.70291 8.96453 1.96851 8.96062ZM4.88239 9.72229C4.79255 9.73792 4.70662 9.67933 4.691 9.58949C4.68709 9.56996 4.68709 9.55043 4.691 9.5309V6.00378C4.68319 5.9491 4.70272 5.89441 4.73787 5.85535C4.78084 5.8241 4.83161 5.80848 4.88239 5.81239H5.43314C5.5386 5.80067 5.63235 5.87488 5.64797 5.98034L5.74953 6.39047C5.91358 6.19908 6.10888 6.03503 6.32761 5.91004C6.50729 5.81629 6.7065 5.76942 6.9057 5.76942H7.01507C7.06976 5.76551 7.12444 5.78114 7.16741 5.81239C7.20256 5.85535 7.21818 5.91004 7.21428 5.96081V6.6053C7.21818 6.65608 7.20256 6.70686 7.17131 6.74983C7.12835 6.78498 7.07366 6.8006 7.02288 6.7967H6.67134C6.52682 6.8006 6.3823 6.81623 6.24168 6.84748C6.09325 6.87482 5.94873 6.91778 5.81202 6.97637V9.53871C5.81593 9.58949 5.8003 9.64027 5.76906 9.68323C5.72609 9.71839 5.67141 9.73401 5.62063 9.73011H4.88239V9.72229ZM8.31968 5.20305C8.14781 5.21086 7.98376 5.15618 7.85096 5.0429C7.72987 4.92963 7.66737 4.76948 7.67519 4.60543C7.66737 4.44138 7.72987 4.27733 7.85096 4.16405C8.12438 3.94532 8.51498 3.94532 8.7884 4.16405C8.90948 4.27733 8.97198 4.43747 8.96417 4.60152C8.97198 4.76558 8.90558 4.92572 8.7884 5.039C8.6595 5.15227 8.49154 5.21086 8.31968 5.20305ZM7.95251 9.7262C7.86267 9.74183 7.77674 9.68323 7.76112 9.5934C7.75721 9.57387 7.75721 9.55434 7.76112 9.53481V6.00769C7.75331 5.953 7.77284 5.89832 7.80799 5.85926C7.85096 5.82801 7.90173 5.81239 7.95251 5.81629H8.69075C8.74543 5.81239 8.79621 5.8241 8.83918 5.85926C8.87042 5.90222 8.88605 5.95691 8.88214 6.00769V9.53481C8.88605 9.58558 8.87042 9.63636 8.83918 9.67933C8.79621 9.71448 8.74152 9.73011 8.69075 9.7262H7.95251ZM10.0227 9.72229C9.93286 9.73792 9.84692 9.67933 9.8313 9.58949C9.82739 9.56996 9.82739 9.55043 9.8313 9.5309V6.00378C9.82349 5.9491 9.84302 5.89441 9.87817 5.85535C9.92114 5.8241 9.97192 5.80848 10.0227 5.81239H10.5734C10.6789 5.80067 10.7726 5.87488 10.7883 5.98034L10.8508 6.18736C11.0773 6.03112 11.3234 5.90222 11.5812 5.80848C11.796 5.73427 12.0187 5.69521 12.2452 5.69521C12.6397 5.66005 13.0186 5.85535 13.2178 6.19517C13.4444 6.03893 13.6943 5.91394 13.956 5.8202C14.1865 5.74208 14.4287 5.70302 14.6708 5.70692C14.9794 5.68739 15.2802 5.79676 15.5028 6.00769C15.7098 6.23423 15.8153 6.535 15.7958 6.84357V9.53871C15.7997 9.58949 15.784 9.64027 15.7528 9.68323C15.7098 9.71839 15.6552 9.73401 15.6044 9.73011H14.8779C14.788 9.74573 14.7021 9.68714 14.6865 9.5973C14.6826 9.57777 14.6826 9.55824 14.6865 9.53871V7.08184C14.6865 6.7342 14.5302 6.55843 14.2177 6.55843C13.9287 6.56234 13.6397 6.62874 13.3819 6.75764V9.54262C13.3858 9.5934 13.3701 9.64418 13.3389 9.68714C13.2959 9.7223 13.2412 9.73792 13.1905 9.73401H12.4561C12.3663 9.74964 12.2804 9.69105 12.2647 9.60121C12.2608 9.58168 12.2608 9.56215 12.2647 9.54262V7.08574C12.2647 6.73811 12.1085 6.56234 11.796 6.56234C11.5031 6.56234 11.214 6.63655 10.9523 6.76936V9.54262C10.9562 9.5934 10.9406 9.64418 10.9094 9.68714C10.8664 9.7223 10.8117 9.73792 10.7609 9.73401L10.0227 9.72229ZM18.4714 9.83557C17.9324 9.87072 17.405 9.68323 17.0105 9.31216C16.8326 9.10733 16.6969 8.8694 16.6111 8.61202C16.5253 8.35464 16.4912 8.08287 16.5106 7.81226C16.4754 7.24589 16.6551 6.68733 17.0223 6.24986C17.4011 5.85926 17.9324 5.65224 18.4753 5.68349C18.8776 5.66005 19.2721 5.78114 19.5924 6.02722C19.8619 6.25767 20.0103 6.59749 19.9947 6.95294C20.0143 7.30057 19.8463 7.62868 19.5612 7.82398C19.1745 8.04662 18.7292 8.14818 18.2839 8.11693C18.03 8.12083 17.78 8.08959 17.5339 8.031C17.5339 8.30832 17.6472 8.57002 17.8425 8.76532C18.0769 8.92938 18.3581 9.0114 18.6432 8.98797C18.7839 8.98797 18.9206 8.98015 19.0612 8.96062C19.2526 8.92938 19.4401 8.89032 19.6276 8.83954H19.7135C19.7994 8.83954 19.8424 8.89813 19.8424 9.01531V9.36685C19.8463 9.42544 19.8346 9.48794 19.8072 9.53871C19.7721 9.58168 19.7252 9.60902 19.6705 9.62464C19.2838 9.77698 18.8776 9.84338 18.4714 9.83557ZM18.2214 7.42947C18.4167 7.4451 18.6159 7.40213 18.7878 7.30838C18.9089 7.22636 18.9753 7.08965 18.9635 6.94513C18.9635 6.62483 18.7721 6.46469 18.3894 6.46469C17.8972 6.46469 17.6121 6.76545 17.5378 7.37088C17.7605 7.41385 17.987 7.43338 18.2136 7.43338H18.2214V7.42947ZM18.0691 14.0267C15.8817 15.6399 12.7061 16.4992 9.97582 16.4992C6.32761 16.5187 2.80049 15.1751 0.0897254 12.7338C-0.117293 12.5463 0.0662894 12.2964 0.312368 12.437C3.3239 14.1556 6.73384 15.0618 10.2063 15.0579C12.796 15.0423 15.3544 14.5189 17.741 13.515C18.1198 13.3588 18.4323 13.7494 18.0691 14.0267Z" fill="#00A8E1"/>
<path d="M18.9908 12.9994C18.7096 12.644 17.1433 12.8276 16.4363 12.9135C16.2214 12.9369 16.1863 12.7534 16.3816 12.6206C17.6315 11.7417 19.6861 11.9956 19.9243 12.2924C20.1626 12.5854 19.8618 14.6439 18.6744 15.6243C18.4947 15.7727 18.3229 15.6946 18.401 15.4954C18.6705 14.8235 19.2603 13.3471 18.9908 12.9994Z" fill="#00A8E1"/>
</svg>
