<svg width="21" height="20" viewBox="0 0 21 20" fill="none" xmlns="http://www.w3.org/2000/svg">
<path d="M9.15502 19.9778C8.81473 19.9461 7.91945 19.791 7.58735 19.7062C4.71629 18.9732 2.28488 17.0072 0.998194 14.3783C0.292816 12.9372 -0.00115649 11.6484 3.41808e-06 10.0021C0.00115058 8.35388 0.299651 7.03924 0.993609 5.6259C1.51337 4.56732 2.11121 3.73806 2.95994 2.8984C4.54754 1.32777 6.55851 0.355474 8.83636 0.0571896C9.58106 -0.0403283 11.1575 -0.00859869 11.853 0.117909C13.2994 0.381003 14.5981 0.897741 15.7618 1.67326C18.1797 3.28447 19.7479 5.74858 20.1567 8.57878C20.2443 9.18472 20.2949 10.4457 20.236 10.5511C20.2038 10.6085 20.1871 10.5483 20.1661 10.2992C20.0617 9.06444 19.5275 7.57136 18.7906 6.4544C16.5507 3.05942 12.3717 1.61908 8.50241 2.90848C5.51594 3.90371 3.2714 6.42868 2.65536 9.48606C2.35075 10.9978 2.44216 12.4797 2.93026 13.9426C3.79106 16.5225 5.85128 18.5837 8.464 19.4787C9.08017 19.6898 9.87148 19.8657 10.3933 19.9076C11.0181 19.9577 10.8606 20.0054 10.0897 19.9995C9.66912 19.9963 9.24849 19.9865 9.15502 19.9778Z" fill="#F78B24"/>
<path d="M11.3006 18.7305C8.07095 18.4953 5.39502 16.0872 4.83657 12.9134C4.73492 12.3357 4.71534 11.2559 4.79687 10.7244C5.28105 7.56837 7.70873 5.17399 10.8757 4.72895C11.5176 4.63875 12.6615 4.67036 13.2763 4.79531C13.811 4.90399 14.4039 5.09691 14.8696 5.31381L15.2307 5.48201L14.8908 5.64253C13.6642 6.22179 12.9072 7.57671 13.0849 8.87464C13.2628 10.1744 14.1617 11.1946 15.452 11.5613C15.9165 11.6934 16.6269 11.6933 17.0916 11.5612C17.6925 11.3905 18.1638 11.1111 18.5927 10.6716C18.7374 10.5232 18.8652 10.417 18.8766 10.4356C18.888 10.4543 18.9211 10.6588 18.9502 10.8903C19.0218 11.4613 18.9798 12.5476 18.865 13.09C18.4993 14.8174 17.5781 16.2673 16.1654 17.3386C14.8284 18.3525 13.0596 18.8586 11.3006 18.7305Z" fill="#F78B24"/>
</svg>
