<svg width="20" height="20" viewBox="0 0 20 20" fill="none" xmlns="http://www.w3.org/2000/svg">
<path d="M13.0077 15.6798V17.7774C13.0077 19.0046 12.008 20 10.7746 20C9.54124 20 8.54151 19.0057 8.54151 17.7774V12.2857L13.0077 15.6798Z" fill="#34A853"/>
<path d="M13.0077 2.22269V15.6798L8.54151 12.2857V6.93377L12.1958 3.93622C12.7317 3.49761 13.0077 2.86242 13.0077 2.22269Z" fill="url(#paint0_linear_3_147)"/>
<path d="M13.0065 2.14533C13.0077 2.17033 13.0077 2.19532 13.0077 2.22146C13.0077 2.86119 12.7317 3.49638 12.1958 3.93499L8.54151 6.93254V2.2226C8.54151 1.49537 8.89308 0.847677 9.43932 0.442019C9.47826 0.412475 9.5172 0.385204 9.55957 0.35907C9.57904 0.34657 9.59736 0.334071 9.61683 0.322708C9.65233 0.299982 9.69012 0.279529 9.72447 0.261348L9.82296 0.212487L9.90541 0.17499C9.93862 0.161354 9.97183 0.147719 10.0073 0.135219C10.0405 0.12272 10.076 0.111357 10.1104 0.0999941C10.1745 0.080677 10.2398 0.0624963 10.3074 0.0488607C10.3268 0.0443156 10.3474 0.0409067 10.3692 0.0363615C10.3841 0.0340889 10.399 0.0318163 10.4139 0.0295437C10.4402 0.0249985 10.4665 0.0215896 10.4929 0.0181807C10.5238 0.0136356 10.5547 0.0102267 10.5868 0.00795407C10.612 0.00568148 10.6372 0.00340889 10.6624 0.00227259C10.699 0.0011363 10.7368 0 10.7746 0H10.7757C10.8571 0 10.9361 0.00454518 11.0162 0.0124993C11.0552 0.0170444 11.0952 0.0227259 11.1365 0.0295437C11.1754 0.0352252 11.2143 0.0431793 11.2556 0.0522696C11.2945 0.0602237 11.3334 0.0704504 11.3724 0.0818133C11.4044 0.0897674 11.4377 0.0999941 11.4697 0.111357C11.5327 0.13181 11.5957 0.154536 11.6552 0.180671C11.685 0.19317 11.7148 0.206806 11.7446 0.220441C11.7824 0.238622 11.8201 0.257939 11.8568 0.277256C11.9118 0.307936 11.9644 0.339753 12.0171 0.374978C12.0228 0.379523 12.0286 0.382932 12.0343 0.386341C12.0904 0.424975 12.1442 0.467018 12.198 0.510197C12.2244 0.532923 12.2507 0.554513 12.2771 0.578375L12.2794 0.580647C12.3046 0.60451 12.3297 0.628372 12.3549 0.65337C12.3801 0.678369 12.4053 0.704504 12.4294 0.729502C12.4786 0.781772 12.5233 0.83745 12.5657 0.894265C12.5954 0.932899 12.6229 0.973806 12.6492 1.01358C12.6618 1.03289 12.6744 1.05107 12.6859 1.07039C12.7088 1.10562 12.7294 1.14311 12.7477 1.1772C12.7615 1.20447 12.7832 1.24879 12.797 1.27492C12.8096 1.3022 12.8222 1.32947 12.8336 1.35674C12.8474 1.38969 12.8611 1.42378 12.8737 1.45787C12.8863 1.49082 12.8978 1.52605 12.9081 1.56013C12.9229 1.609 12.9355 1.65786 12.947 1.70558C12.9539 1.72831 12.9584 1.7499 12.9619 1.77262C12.9688 1.80444 12.9745 1.83512 12.9802 1.8658C12.9848 1.8908 12.9871 1.9158 12.9905 1.94079C12.9951 1.97147 12.9985 2.00215 13.0008 2.03397C13.0031 2.05897 13.0054 2.08397 13.0065 2.10897C13.0054 2.12033 13.0065 2.13283 13.0065 2.14533Z" fill="#EA4335"/>
<path d="M9.35231 0.506755C9.3798 0.484029 9.40843 0.462439 9.43706 0.441986C8.8931 0.847644 8.54153 1.4942 8.54153 2.22256V6.93365L6.64512 8.49151C6.23057 8.83353 5.72898 8.9983 5.22854 8.9983C4.5861 8.9983 3.94823 8.72331 3.50849 8.19039C2.72633 7.24272 2.86146 5.8428 3.81081 5.0633L9.35231 0.506755Z" fill="#FBBC04"/>
<defs>
<linearGradient id="paint0_linear_3_147" x1="231.851" y1="1358.39" x2="231.851" y2="1.68865" gradientUnits="userSpaceOnUse">
<stop stop-color="#1A73E8"/>
<stop offset="1" stop-color="#4285F4"/>
</linearGradient>
</defs>
</svg>
