<svg width="20" height="22" viewBox="0 0 20 22" fill="none" xmlns="http://www.w3.org/2000/svg">
<path d="M11.0899 1.01578L11.082 5.43541L11.0741 9.85505L10.711 8.82907V8.82643L10.2401 18.6654C10.7031 19.9702 10.9504 20.6674 10.9531 20.67C10.9557 20.6726 11.2188 20.6884 11.5371 20.7042C12.4999 20.7516 13.6943 20.8542 14.6019 20.9673C14.8123 20.9936 14.9912 21.0067 15.0044 20.9962C15.0175 20.9857 15.0202 16.4871 15.0175 10.9968L15.0097 1.01578H11.0899Z" fill="#B1060F" stroke="black" stroke-width="0.084073"/>
<path d="M4 1.00263V10.9942C4 16.4898 4.00526 20.991 4.01315 20.9989C4.02105 21.0068 4.36041 20.9726 4.77081 20.9278C5.1812 20.8831 5.74681 20.8252 6.0283 20.8016C6.45974 20.7647 7.75406 20.6832 7.90138 20.6805C7.94611 20.6805 7.94874 20.4569 7.954 16.4477L7.96189 12.2148L8.27495 13.0988C8.3223 13.2356 8.33809 13.2776 8.38544 13.4118L8.85634 3.57549C8.75637 3.294 8.80899 3.44132 8.69587 3.12037C8.31178 2.03388 7.98557 1.11575 7.97241 1.07366L7.94611 1H4V1.00263Z" fill="#B1060F" stroke="black" stroke-width="0.084073"/>
<path d="M11.0899 1.01578L11.082 5.43541L11.0741 9.85505L10.711 8.82907V8.82643L10.2401 18.6654C10.7031 19.9702 10.9504 20.6674 10.9531 20.67C10.9557 20.6726 11.2188 20.6884 11.5371 20.7042C12.4999 20.7516 13.6943 20.8542 14.6019 20.9673C14.8123 20.9936 14.9912 21.0067 15.0044 20.9962C15.0175 20.9857 15.0202 16.4871 15.0175 10.9968L15.0097 1.01578H11.0899Z" fill="#B1060F" stroke="black" stroke-width="0.084073"/>
<path d="M4 1.00263V10.9942C4 16.4898 4.00526 20.991 4.01315 20.9989C4.02105 21.0068 4.36041 20.9726 4.77081 20.9278C5.1812 20.8831 5.74681 20.8252 6.0283 20.8016C6.45974 20.7647 7.75406 20.6832 7.90138 20.6805C7.94611 20.6805 7.94874 20.4569 7.954 16.4477L7.96189 12.2148L8.27495 13.0988C8.3223 13.2356 8.33809 13.2776 8.38544 13.4118L8.85634 3.57549C8.75637 3.294 8.80899 3.44132 8.69587 3.12037C8.31178 2.03388 7.98557 1.11575 7.97241 1.07366L7.94611 1H4V1.00263Z" fill="#B1060F" stroke="black" stroke-width="0.084073"/>
<path d="M4 1.00263V6.61136L7.95137 17.0922C7.95137 16.8528 7.95137 16.7213 7.954 16.4477L7.96189 12.2148L8.27495 13.0988C10.0112 18.0235 10.9451 20.6648 10.9504 20.67C10.953 20.6727 11.2161 20.6884 11.5344 20.7042C12.4973 20.7516 13.6916 20.8542 14.5992 20.9673C14.8097 20.9936 14.9886 21.0068 15.0017 20.9962C15.0096 20.9883 15.0149 18.7838 15.0149 15.6716L11.0846 4.36471L11.0819 5.43542L11.0741 9.85506L10.711 8.82907C10.3559 7.82676 10.1191 7.15593 8.6906 3.12037C8.30652 2.03388 7.9803 1.11575 7.96715 1.07366L7.94084 1H4V1.00263Z" fill="url(#paint0_radial_3_148)"/>
<path d="M4 1.00263L7.95926 12.2227V12.2175L8.27232 13.1014C10.0112 18.0235 10.9451 20.6648 10.9504 20.67C10.953 20.6727 11.2161 20.6884 11.5344 20.7042C12.4973 20.7516 13.6916 20.8542 14.5992 20.9673C14.8071 20.9936 14.9886 21.0068 14.9991 20.9962L11.0741 9.85243V9.85506L10.711 8.82907C10.3559 7.82676 10.1191 7.15593 8.6906 3.12037C8.30652 2.03388 7.98031 1.11575 7.96715 1.07366L7.94084 1H5.97042L4 1.00263Z" fill="#E50914"/>
<defs>
<radialGradient id="paint0_radial_3_148" cx="0" cy="0" r="1" gradientUnits="userSpaceOnUse" gradientTransform="translate(9.32304 10.884) rotate(-19.1007) scale(0.72595 26.5925)">
<stop/>
<stop offset="1" stop-opacity="0"/>
</radialGradient>
</defs>
</svg>
