<svg width="20" height="20" viewBox="0 0 20 20" fill="none" xmlns="http://www.w3.org/2000/svg">
<path d="M10 0C4.48047 0 0 4.48047 0 10C0 15.5195 4.48047 20 10 20C15.5195 20 20 15.5195 20 10C20 4.48047 15.5195 0 10 0Z" fill="#1ED760"/>
<path d="M16.3946 8.99609C16.1836 8.99609 16.0547 8.94531 15.875 8.83984C13.0039 7.125 7.87112 6.71484 4.5469 7.64063C4.40237 7.67969 4.21877 7.74609 4.02737 7.74609C3.49612 7.74609 3.08596 7.33203 3.08596 6.79297C3.08596 6.24609 3.4258 5.93359 3.78909 5.82812C5.20705 5.41406 6.7969 5.21484 8.52737 5.21484C11.4727 5.21484 14.5547 5.82813 16.8086 7.14063C17.125 7.32031 17.3281 7.57031 17.3281 8.05078C17.3321 8.60547 16.8867 8.99609 16.3946 8.99609ZM15.1446 12.0703C14.9336 12.0703 14.793 11.9766 14.6485 11.9023C12.1289 10.4102 8.37112 9.80859 5.02737 10.7188C4.83205 10.7695 4.73049 10.8242 4.5469 10.8242C4.11721 10.8242 3.76565 10.4727 3.76565 10.043C3.76565 9.61328 3.97659 9.32422 4.39065 9.20703C5.51174 8.89063 6.65627 8.66016 8.33596 8.66016C10.9531 8.66016 13.4805 9.30859 15.4727 10.4961C15.8008 10.6914 15.9297 10.9414 15.9297 11.2891C15.9219 11.7188 15.586 12.0703 15.1446 12.0703ZM14.0586 14.7148C13.8906 14.7148 13.7852 14.6641 13.6289 14.5703C11.1133 13.0547 8.18362 12.9883 5.29299 13.582C5.13674 13.6211 4.92971 13.6875 4.81252 13.6875C4.4219 13.6875 4.1758 13.3789 4.1758 13.0508C4.1758 12.6367 4.4219 12.4375 4.72268 12.375C8.02346 11.6445 11.3985 11.7109 14.2774 13.4297C14.5235 13.5859 14.668 13.7266 14.668 14.0938C14.668 14.4609 14.3867 14.7148 14.0586 14.7148Z" fill="black"/>
</svg>
