<svg width="20" height="20" viewBox="0 0 20 20" fill="none" xmlns="http://www.w3.org/2000/svg">
<path d="M7.00865 1.4249C5.2363 3.17243 5.03771 5.96251 6.54694 7.94337C6.55687 7.94834 6.5668 7.94834 6.57176 7.94337C6.57673 7.93344 6.57673 7.92351 6.57176 7.91358C6.18949 6.75188 8.12567 3.94193 9.11362 2.74051V2.70079C7.43063 1.04263 6.99375 1.41994 6.99375 1.41001M13.9441 1.4249C15.7165 3.17243 15.9151 5.96251 14.4058 7.94337C14.3959 7.94834 14.386 7.94834 14.381 7.94337C14.3761 7.93344 14.3761 7.92351 14.381 7.91358C14.7534 6.75188 12.837 3.92208 11.8392 2.74051V2.70079C13.5222 1.04263 13.959 1.41994 13.959 1.41001M10.4689 7.16308e-05C11.3824 -0.00489293 12.281 0.2483 13.0555 0.729862C13.0604 0.739792 13.0604 0.749721 13.0555 0.75965H13.0257C12.0725 0.551138 10.6129 1.37526 10.4739 1.45965H10.4689C10.1065 1.25114 8.76114 0.541209 7.90723 0.75965C7.8973 0.764614 7.88737 0.764614 7.88241 0.75965C7.87744 0.749721 7.87744 0.739792 7.88241 0.729862C8.66184 0.2483 9.55547 -0.00489293 10.4689 7.16308e-05ZM10.4689 3.96676H10.4888C11.9782 5.10364 14.5101 7.87883 13.7356 8.67316C11.8789 10.3065 9.09376 10.3065 7.23702 8.67316C6.46751 7.87883 8.99944 5.10364 10.4689 3.97669M7.31148 16.6562C7.1129 16.5271 6.8746 16.4626 6.64127 16.4725H5.1519V19.9427H5.53913V18.4831H6.5668C6.85971 18.4931 7.15262 18.3987 7.38099 18.22C7.58453 18.0314 7.69376 17.7633 7.67886 17.4853C7.71361 17.1626 7.56964 16.8498 7.31148 16.6562ZM5.53913 16.8399H6.63134C6.96396 16.8051 7.25687 17.0484 7.29163 17.381C7.29659 17.4158 7.29659 17.4505 7.29163 17.4853C7.29659 17.6392 7.24198 17.7931 7.13772 17.9122C6.99375 18.0611 6.79021 18.1356 6.58666 18.1207H5.52921V16.8399H5.53913ZM8.98951 16.4775H8.64695L7.24694 19.9477H7.66397L8.08099 18.8902H9.52568L9.9427 19.9477H10.3597L8.98951 16.4775ZM8.22 18.5278L8.82071 17.0087L9.39164 18.5278H8.22ZM11.9484 18.0016C11.9236 18.0016 11.8938 18.0016 11.864 17.9817C11.2633 17.8675 10.9009 17.7533 10.9009 17.3562C10.8959 17.1626 10.9952 16.9789 11.164 16.8845C11.5562 16.686 12.0229 16.7058 12.4002 16.9392C12.5739 17.0732 12.6682 17.2817 12.6633 17.5002V17.5945H13.0555V17.4952C13.0257 16.7952 12.5243 16.3881 11.7002 16.3881C11.0994 16.3881 10.4987 16.686 10.4987 17.3611C10.4838 17.6541 10.6377 17.9271 10.9009 18.0661C11.1491 18.1952 11.4172 18.2846 11.6952 18.3292H11.7498C12.3654 18.4583 12.7477 18.5675 12.7477 18.9945C12.7576 19.203 12.6484 19.3966 12.4647 19.5009C12.2909 19.5952 12.0924 19.6498 11.8938 19.6448C11.5661 19.6697 11.2434 19.5604 10.9952 19.342C10.8512 19.1831 10.7817 18.9697 10.8065 18.7562V18.6569H10.4342V18.7463C10.4143 19.064 10.5236 19.3768 10.742 19.6101C11.308 20.0569 12.0874 20.1264 12.7229 19.7839C12.9959 19.6151 13.1647 19.3122 13.1548 18.9895C13.1448 18.2448 12.4597 18.1108 11.9484 18.0016ZM15.0165 18.0016C14.9867 17.9966 14.9619 17.9916 14.9321 17.9817C14.3314 17.8675 13.969 17.7533 13.969 17.3562C13.964 17.1626 14.0633 16.9789 14.2321 16.8845C14.6243 16.686 15.091 16.7058 15.4683 16.9392C15.642 17.0732 15.7363 17.2817 15.7314 17.5002V17.5945H16.1186V17.4952C16.0938 16.7952 15.5874 16.3881 14.7683 16.3881C14.1675 16.3881 13.5668 16.686 13.5668 17.3611C13.5519 17.6541 13.7058 17.9271 13.969 18.0661C14.2172 18.1952 14.4853 18.2846 14.7633 18.3292H14.8179C15.4335 18.4583 15.8158 18.5675 15.8158 18.9945C15.8257 19.198 15.7215 19.3917 15.5477 19.5009C15.3739 19.5952 15.1754 19.6498 14.9768 19.6448C14.6491 19.6697 14.3264 19.5604 14.0782 19.342C13.9342 19.1831 13.8647 18.9697 13.8895 18.7562V18.6569H13.5073V18.7463C13.4874 19.064 13.5966 19.3768 13.8151 19.6101C14.381 20.0569 15.1605 20.1264 15.7959 19.7839C16.069 19.6151 16.2378 19.3122 16.2278 18.9895C16.2129 18.2448 15.5278 18.1108 15.0165 18.0016ZM14.8626 14.8243V13.5434H16.769V13.1959H14.8626V12.0342H16.8931V11.7015H14.4803V15.1618H16.9229V14.8243H14.8626ZM13.6016 11.7015L12.3952 14.6058L11.1739 11.7015H10.7321V15.1618H11.1243V12.481L12.2314 15.1618H12.559L13.6562 12.4909V15.1618H14.0484V11.7015H13.6016ZM9.14341 11.7015H8.80085L7.41077 15.1618H7.82283L8.23986 14.1044H9.68454L10.0916 15.1618H10.5087L9.14341 11.7015ZM8.3739 13.742L8.96468 12.2377L9.53561 13.742H8.3739ZM5.67814 13.3696V13.737H6.81999C6.82992 14.0399 6.7207 14.3377 6.52212 14.5611C6.29871 14.7796 5.99091 14.8987 5.67814 14.8888C5.48949 14.8888 5.30084 14.854 5.12708 14.7796C4.97814 14.7101 4.8441 14.6058 4.73488 14.4817C4.63062 14.3427 4.55119 14.1888 4.50154 14.025C4.44693 13.8413 4.41714 13.6526 4.41714 13.464C4.41218 13.0966 4.5214 12.7342 4.73488 12.4363C4.95828 12.1484 5.3058 11.9895 5.66821 12.0044C6.17956 11.9945 6.62637 12.3469 6.72567 12.8484H7.10794V12.8136C7.05333 12.4711 6.86964 12.1632 6.60155 11.9498C6.3285 11.7462 5.99588 11.637 5.65828 11.642C5.41999 11.642 5.18169 11.6916 4.95828 11.7859C4.75473 11.8803 4.57105 12.0143 4.42707 12.1881C4.14409 12.5505 3.99516 12.9973 4.00012 13.459C4.00012 13.6923 4.03984 13.9257 4.11431 14.1491C4.18381 14.3576 4.29303 14.5512 4.43204 14.72C4.73488 15.0675 5.17672 15.2611 5.63843 15.2512C5.93134 15.2562 6.21928 15.1817 6.47247 15.0328C6.59659 14.9583 6.71077 14.859 6.80013 14.7448V15.1767H7.16255V13.3696H5.67814Z" fill="#107C10"/>
</svg>
